<!DOCTYPE svg PUBLIC "-//W3C//DTD SVG 1.1//EN" "http://www.w3.org/Graphics/SVG/1.1/DTD/svg11.dtd">
<!-- Uploaded to: SVG Repo, www.svgrepo.com, Transformed by: SVG Repo Mixer Tools -->
<svg fill="#5A9F68" height="800px" width="800px" version="1.1" id="Capa_1" xmlns="http://www.w3.org/2000/svg" xmlns:xlink="http://www.w3.org/1999/xlink" viewBox="0 0 60 60" xml:space="preserve">
<g id="SVGRepo_bgCarrier" stroke-width="0"/>
<g id="SVGRepo_tracerCarrier" stroke-linecap="round" stroke-linejoin="round"/>
<g id="SVGRepo_iconCarrier"> <g> <circle cx="22" cy="16" r="1"/> <circle cx="23" cy="47" r="1"/> <circle cx="28" cy="43" r="1"/> <circle cx="22" cy="38" r="1"/> <circle cx="29" cy="37" r="1"/> <circle cx="23" cy="30" r="1"/> <circle cx="27" cy="22" r="1"/> <circle cx="21" cy="22" r="1"/> <circle cx="28" cy="11" r="1"/> <circle cx="14" cy="24" r="1"/> <circle cx="14" cy="27" r="1"/> <circle cx="14" cy="30" r="1"/> <circle cx="14" cy="33" r="1"/> <circle cx="14" cy="36" r="1"/> <path d="M59,32h-4.076l-0.109,0.877C53.316,44.919,42.648,54,30,54c-4.016,0-6.867-0.905-8.715-2.769 c-2.814-2.837-3.275-7.88-3.315-13.901c0.066-1.426,0.055-3.084,0.041-4.937C18.006,31.62,18,30.819,18,30 c0-0.864,0.007-1.706,0.014-2.519c0.015-1.869,0.027-3.532-0.043-4.96c0.047-5.957,0.524-10.939,3.315-13.753 C23.133,6.905,25.984,6,30,6c12.648,0,23.316,9.081,24.815,21.123L54.924,28H59c0.552,0,1-0.447,1-1s-0.448-1-1-1h-2.325 C54.656,13.396,43.347,4,30,4C20.201,4,11.217,7.763,5.752,14.093C5.564,14.038,5.371,14,5.168,14C1.617,14,0,22.294,0,30 s1.617,16,5.168,16c0.203,0,0.396-0.038,0.584-0.093C11.217,52.237,20.201,56,30,56c13.347,0,24.656-9.396,26.675-22H59 c0.552,0,1-0.447,1-1S59.552,32,59,32z M2,30c0-9.024,2.077-13.962,3.222-13.964l0.017,0.018c0.875,0.936,0.829,5.637,0.785,10.184 C6.012,27.44,6,28.7,6,30s0.012,2.56,0.024,3.762c0.012,1.284,0.024,2.578,0.016,3.798C6.017,40.691,5.851,43.333,5.168,44 C4.093,44,2,39.059,2,30z M7.208,44.555c0.319-0.661,0.522-1.55,0.647-2.697c0.001-0.009,0.002-0.018,0.003-0.027 c0.124-1.151,0.172-2.561,0.182-4.26c0-0.003,0-0.005,0-0.008c0.007-1.135-0.002-2.392-0.016-3.795C8.013,32.564,8,31.302,8,30 s0.013-2.564,0.024-3.769c0.014-1.403,0.022-2.66,0.016-3.795c0-0.002,0-0.005,0-0.008c-0.01-1.699-0.058-3.109-0.182-4.26 c-0.001-0.009-0.002-0.018-0.003-0.027c-0.125-1.146-0.328-2.035-0.647-2.697c3.102-3.617,7.465-6.331,12.494-7.901 c-2.243,2.38-3.158,5.765-3.515,9.785C15.833,17.118,15.434,17,15,17c-3.42,0-6,5.589-6,13s2.58,13,6,13 c0.433,0,0.833-0.119,1.187-0.333c0.357,4.022,1.271,7.408,3.515,9.789C14.673,50.885,10.31,48.172,7.208,44.555z M15.982,26.702 C15.991,27.781,16,28.882,16,30s-0.009,2.219-0.018,3.298c-0.011,1.348-0.02,2.662-0.012,3.941c-0.081,1.796-0.28,3.2-0.747,3.67 C15.154,40.978,15.1,41,15,41c-1.888,0-4-4.704-4-11s2.112-11,4-11c0.108,0,0.166,0.023,0.238,0.096 c0.453,0.457,0.65,1.787,0.732,3.495C15.961,23.923,15.971,25.294,15.982,26.702z"/> <path d="M59,29h-5.586L37,12.586V9c0-0.553-0.448-1-1-1s-1,0.447-1,1v3h-3c-0.552,0-1,0.447-1,1s0.448,1,1,1h3.586l15,15h-5.172 l-7.207-7.207c-0.061-0.061-0.136-0.095-0.207-0.137V18c0-0.553-0.448-1-1-1s-1,0.447-1,1v3h-3c-0.552,0-1,0.447-1,1s0.448,1,1,1 h3.655c0.042,0.071,0.076,0.146,0.138,0.207L42.586,29H41h-8.586l-2.707-2.707c-0.391-0.391-1.023-0.391-1.414,0 s-0.391,1.023,0,1.414L30.586,30l-2.293,2.293c-0.391,0.391-0.391,1.023,0,1.414C28.488,33.902,28.744,34,29,34 s0.512-0.098,0.707-0.293L32.414,31H41h1.586l-6,6H33c-0.552,0-1,0.447-1,1s0.448,1,1,1h3v3c0,0.553,0.448,1,1,1s1-0.447,1-1 v-3.586L45.414,31h5.172l-15,15H32c-0.552,0-1,0.447-1,1s0.448,1,1,1h3v3c0,0.553,0.448,1,1,1s1-0.447,1-1v-3.586L53.414,31H59 c0.552,0,1-0.447,1-1S59.552,29,59,29z"/> </g> </g>
</svg>