<!DOCTYPE svg PUBLIC "-//W3C//DTD SVG 1.1//EN" "http://www.w3.org/Graphics/SVG/1.1/DTD/svg11.dtd">
<!-- Uploaded to: SVG Repo, www.svgrepo.com, Transformed by: SVG Repo Mixer Tools -->
<svg fill="#5A9F68" height="800px" width="800px" version="1.1" id="Layer_1" xmlns="http://www.w3.org/2000/svg" xmlns:xlink="http://www.w3.org/1999/xlink" viewBox="0 0 480.104 480.104" xml:space="preserve">
<g id="SVGRepo_bgCarrier" stroke-width="0"/>
<g id="SVGRepo_tracerCarrier" stroke-linecap="round" stroke-linejoin="round"/>
<g id="SVGRepo_iconCarrier"> <g> <g> <path d="M388.104,203.455h-39.048c-12.976-12.152-35.368-19.568-59.576-19.568c-0.6,0-1.168,0.064-1.76,0.072 c33.424-60.752,17.248-134.688-36.936-165.976C224,2.519,192.144-0.329,161.072,9.943c-30.736,10.168-57.048,32.016-74.088,61.52 C80,83.551,74.872,96.639,71.72,110.415c-33.784,21.864-54.616,63-54.616,108.304c0,8.84,0.808,17.656,2.384,26.192 c0.808,4.344,4.984,7.224,9.328,6.408c4.344-0.808,7.208-4.976,6.408-9.328c-1.408-7.576-2.12-15.408-2.12-23.272 c0-41.04,19.096-77.992,49.832-96.448c1.92-1.16,3.272-3.064,3.72-5.264c2.72-13.328,7.496-25.96,14.184-37.544 c15.072-26.112,38.24-45.408,65.248-54.336c26.68-8.832,53.904-6.44,76.688,6.712c47.32,27.32,60.656,93.152,29.72,146.736 c-10.176,17.624-24.184,32.248-40.824,42.68c-0.92-0.56-1.96-0.96-3.096-1.104c-53.88-6.952-53.384-47.472-53.328-49.344 c0.168-4.408-3.248-8.112-7.656-8.296c-4.296-0.192-8.144,3.24-8.328,7.656c-0.016,0.448-0.84,35.416,32.336,54.648 c-30.936-0.888-43.48-9.504-43.904-9.808c-3.488-2.656-8.448-2.016-11.144,1.44c-2.728,3.48-2.12,8.504,1.368,11.224 c0.832,0.656,17.464,13.224,58.944,13.224c8.088,0,17.184-0.52,27.216-1.656c3.424,2.168,7.392,4.536,11.664,7.072 c8.808,5.232,19.32,11.536,28.568,18.392c0.712,3.072,3.192,5.568,6.496,6.104c0.424,0.072,0.88,0.096,1.304,0.16 c4.536,3.96,8.464,8.032,11.112,12.168c17.6,27.504,22.544,56.44,14.296,83.656c-8.624,28.48-31.672,53.32-61.648,66.464 c-6.952,3.056-14.2,5.456-21.552,7.12c-4.304,0.984-7.008,5.264-6.032,9.576c0.84,3.712,4.152,6.224,7.8,6.224 c0.584,0,1.184-0.064,1.784-0.192c8.336-1.896,16.56-4.608,24.44-8.072c34.2-15,60.568-43.584,70.528-76.48 c9.648-31.832,4.072-65.352-16.136-96.92c-0.52-0.816-1.2-1.592-1.776-2.392c17.152-0.8,33.296-5.28,45.28-12.688h47.896 c19.848,0,36,16.152,36,36v16c0,19.848-16.152,36-36,36c-33.088,0-60,26.912-60,60v60.024c0,4.424,3.576,8,8,8h40 c4.424,0,8-3.576,8-8v-60c0-2.2,1.8-4,4-4c50.728,0,92-41.272,92-92v-16C480.104,244.727,438.832,203.455,388.104,203.455z M464.104,311.455c0,41.904-34.096,76-76,76c-11.032,0-20,8.968-20,20v52h-24v-52c0-24.256,19.744-44,44-44 c28.672,0,52-23.328,52-52v-16c0-28.672-23.328-52-52-52h-50.24c-1.592,0-3.16,0.48-4.48,1.368 c-10.808,7.296-26.808,11.488-43.904,11.488c-3.608,0-7.144-0.248-10.632-0.616c-10.856-8.76-23.688-16.44-34.92-23.12 c-0.056-0.024-0.104-0.056-0.152-0.088c12.968-8.736,24.408-19.744,33.856-32.576c0.984,0.32,2.048,0.448,3.136,0.336 c2.84-0.232,5.744-0.36,8.704-0.36c21.208,0,40.968,6.656,50.32,16.952c1.52,1.664,3.672,2.616,5.928,2.616h42.384 c41.904,0,76,34.096,76,76V311.455z"/> </g> </g> <g> <g> <circle cx="264.104" cy="363.455" r="9.248"/> </g> </g> <g> <g> <circle cx="72.104" cy="210.207" r="9.248"/> </g> </g> <g> <g> <circle cx="125.504" cy="152.959" r="9.248"/> </g> </g> <g> <g> <circle cx="232.104" cy="171.455" r="9.248"/> </g> </g> <g> <g> <circle cx="182.624" cy="66.207" r="9.248"/> </g> </g> <g> <g> <circle cx="254.856" cy="104.959" r="9.248"/> </g> </g> <g> <g> <path d="M111.616,253.007C50.072,253.007,0,303.079,0,364.615s50.072,111.608,111.616,111.608 c61.536,0,111.608-50.072,111.608-111.608S173.16,253.007,111.616,253.007z M111.616,460.231 C58.888,460.231,16,417.343,16,364.623c0-52.72,42.888-95.608,95.616-95.608c52.72,0,95.608,42.888,95.608,95.608 C207.224,417.343,164.336,460.231,111.616,460.231z"/> </g> </g> <g> <g> <polygon points="136.104,339.455 136.104,307.455 88.104,307.455 88.104,339.455 56.104,339.455 56.104,387.455 88.104,387.455 88.104,419.455 136.104,419.455 136.104,387.455 168.104,387.455 168.104,339.455 "/> </g> </g> </g>
</svg>